# xmcd CD database file
#
# Track frame offsets:
#	150
#	1173
#	39001
#	43887
#	73723
#	97901
#	127260
#	155198
#	165650
#	179147
#	212043
#	235255
#	269062
#	290560
#	308538
#	340708
#
# Disc length: 4546 seconds
#
# Revision: 1
# Processed by: cddbd v1.5.2PL0 Copyright (c) Steve Scherf et al.
# Submitted via: CDex 1.50
#
DISCID=ea11c010
DTITLE=Riek, Saleem - Herzenslust (Disk 1)
DYEAR=1900
DGENRE=New Age
TTITLE0=Einführung 1
TTITLE1=Einführung 2
TTITLE2=Musik Tanz der Herzen
TTITLE3=Teil 1 - Die Wende nach innen - Unsere alltäglichen Um- und Irrwege zu Lust und Liebe
TTITLE4=Teil 1 - Die Wende nach innen - Was ist Liebe 1
TTITLE5=Teil 1 - Die Wende nach innen - Was ist Liebe 2
TTITLE6=Teil 1 - Die Wende nach innen - Im Feuer der Sehnsucht 1
TTITLE7=Teil 1 - Die Wende nach innen - Im Feuer der Sehnsucht 2
TTITLE8=Musik Vertrauen
TTITLE9=Teil 2 - Im Dickicht der Gefühle - Selbstliebe - eine Entdeckungsreise 1
TTITLE10=Teil 2 - Im Dickicht der Gefühle - Selbstliebe - eine Entdeckungsreise 2
TTITLE11=Teil 2 - Im Dickicht der Gefühle - Die Achterbahn der Gefühle 1
TTITLE12=Teil 2 - Im Dickicht der Gefühle - Die Achterbahn der Gefühle 2
TTITLE13=Teil 2 - Im Dickicht der Gefühle - Die Achterbahn der Gefühle 3
TTITLE14=Teil 2 - Im Dickicht der Gefühle - Die Achterbahn der Gefühle 4
TTITLE15=Teil 2 - Im Dickicht der Gefühle - Die Achterbahn der Gefühle 5
EXTD=
EXTT0=
EXTT1=
EXTT2=
EXTT3=
EXTT4=
EXTT5=
EXTT6=
EXTT7=
EXTT8=
EXTT9=
EXTT10=
EXTT11=
EXTT12=
EXTT13=
EXTT14=
EXTT15=
PLAYORDER=
